<?xml version="1.0" encoding="utf-8"?>
<!-- Generator: Adobe Illustrator 22.1.0, SVG Export Plug-In . SVG Version: 6.00 Build 0)  -->
<svg version="1.1" id="レイヤー_1" xmlns="http://www.w3.org/2000/svg" xmlns:xlink="http://www.w3.org/1999/xlink" x="0px"
	 y="0px" viewBox="0 0 500 500" style="enable-background:new 0 0 500 500;" xml:space="preserve">
<path style="fill:#FFFFFF;" d="M431.2,159.8c8.8,18.6,13.6,39.4,13.6,62.3c0,28.7-5.9,53.8-17.2,75.3
	c-11.3,21.5-27.9,39.6-50.6,54.2l-0.1,0.1l-1,0.5c-1,0.6-2.9,1.4-5.4,3.5c-1.6,1.4-3.5,3.4-4.9,5.9c-1.9,3.4-2.8,7.5-2.8,10.8
	c0,2.4,0.3,4.5,0.8,6.4v0c2.8,11.6,6.5,27.3,9.7,40.9c-13.1-7.7-28.7-17-40.6-24c-8.3-4.8-14.6-8.5-17.4-10.1v0
	c-25.5-14.6-48.8-17.8-65.5-17.7c-27.1,0-55.1-3.1-80.8-10c-25.8-6.9-49.2-17.6-67.9-32.3c-12.5-9.9-22.9-21.5-30.8-35.4
	c-10.5-18.5-16.9-41-16.9-69.3c0.1-43.2,17.4-80.8,50.2-108.8c32.9-27.8,82-45.8,146.2-45.8c45.4,0,84.3,9.6,115,26
	C395.5,108.9,418,132,431.2,159.8z"/>
<path style="fill:#2B2727;" d="M479,222.2c0,33.3-7,64.1-21.1,91c-13.4,25.7-33.4,47.5-58.9,64.6c6,25.3,14.5,61.5,14.5,61.5
	c0.4,1.6,0.6,3.3,0.6,5c0,6.8-3.2,13.3-8.7,17.6l0,0l0,0c-4,3-8.7,4.5-13.4,4.5c-3.6,0-7.2-0.9-10.5-2.6l-0.3-0.2l-0.3-0.2
	c0,0-4.5-2.7-11.5-6.8c-10.5-6.2-26.4-15.6-40.6-24c-7.1-4.2-13.8-8.1-19.1-11.2c-5.3-3.1-9.4-5.5-10.9-6.3l-0.1,0l-0.1-0.1
	C278.8,403.9,263,402,250.4,402c-52.6-0.1-108.6-10.3-153.3-38.2c-22.3-14-41.7-32.6-55.4-56.5c-13.7-23.9-21.4-52.7-21.4-86.2
	c-0.1-52.6,22-100.7,62.2-134.6c40.2-34,97.6-53.8,167.8-53.8c66.7,0,123.6,18.8,164.3,52.3c20.3,16.8,36.5,37.2,47.5,60.4
	C473.2,168.6,479,194.6,479,222.2z M444.8,222.1c0-22.9-4.8-43.7-13.6-62.3c-13.2-27.8-35.7-50.9-66.4-67.4
	c-30.7-16.4-69.6-26-115-26c-64.1,0-113.3,18-146.2,45.8C70.8,140.2,53.5,177.8,53.4,221c0,28.4,6.4,50.9,16.9,69.3
	c7.9,13.8,18.3,25.5,30.8,35.4c18.7,14.8,42.2,25.5,67.9,32.3c25.7,6.9,53.7,10,80.8,10c16.7-0.1,39.9,3.1,65.5,17.7v0
	c2.8,1.6,9.1,5.2,17.4,10.1c11.9,7,27.5,16.2,40.6,24c-3.2-13.6-6.9-29.3-9.7-40.9v0c-0.5-1.9-0.8-4-0.8-6.4c0-3.4,0.8-7.4,2.8-10.8
	c1.4-2.6,3.3-4.6,4.9-5.9c2.5-2.1,4.3-2.9,5.4-3.5l1-0.5l0.1-0.1c22.6-14.6,39.3-32.7,50.6-54.2
	C438.9,275.9,444.8,250.8,444.8,222.1z"/>
<text transform="matrix(1 0 0 1 292.8867 91.9995)" style="writing-mode:tb;"><tspan x="0" y="0" style="font-family:'07YasashisaGothicBold'; font-size:63px;glyph-orientation-vertical:0;">俺も</tspan><tspan x="-82" y="0" style="font-family:'07YasashisaGothicBold'; font-size:63px;glyph-orientation-vertical:0;">歩かせろ</tspan></text>
<rect x="464.3" y="491.9" style="fill:none;" width="0" height="8.1"/>
</svg>
