<?xml version="1.0" encoding="utf-8"?>
<!-- Generator: Adobe Illustrator 22.1.0, SVG Export Plug-In . SVG Version: 6.00 Build 0)  -->
<svg version="1.1" id="レイヤー_1" xmlns="http://www.w3.org/2000/svg" xmlns:xlink="http://www.w3.org/1999/xlink" x="0px"
	 y="0px" viewBox="0 0 212 500" style="enable-background:new 0 0 212 500;" xml:space="preserve">
<g>
	<path style="fill:#706A6A;" d="M85.5,282.5c-3.6,18-12.8,27.9-4.8,76.8s-5.7,83-2.9,90.4c2.8,7.4,7.6,28.9-6.6,26.6
		c-12.3-2-14.4,2.8-25.9,8.4s-13.9-2.5-9.5-5.9c4.7-3.6,6-11,15.2-17.2c0,0,12-8.7,8.2-33.5c-6.6-42.8-1.7-68.1-4.5-73.6
		c-2.8-5.6-0.1-14.9-2.9-21.7c-2.8-6.8-7.1-42.1-7.1-50.1L85.5,282.5z"/>
	<path d="M38.5,489.4c-4.2,0-6.1-2.3-6.7-3.3c-1.9-3.1-0.9-7.3,2.3-9.8c1.5-1.1,2.7-3,4.1-5.1c2.3-3.6,5.2-8.1,11.2-12.1
		c0.8-0.6,10.4-8.6,7-30.6c-4.1-26.5-3.8-46-3.6-58.9c0.1-6.6,0.2-12.3-0.6-13.8c-1.7-3.4-1.7-7.6-1.7-11.7c0-3.6,0-7.3-1.2-10.2
		c-3.1-7.6-7.3-43.6-7.4-51.2l0-3l47.3-0.2l-0.7,3.6c-0.8,4-1.9,7.5-3,11.3c-3.7,12.6-8,26.8-1.8,64.4c5.5,33.1,1.1,59.6-1.6,75.5
		c-1.1,6.5-2.1,12.6-1.4,14.3c0.1,0.2,7.1,19.1,0.4,27.3c-1.6,2-4.7,4.1-10.2,3.2c-7.9-1.3-10.7,0.4-16.2,3.7
		c-2.2,1.3-4.7,2.8-7.9,4.4C43.3,488.8,40.6,489.4,38.5,489.4z M47.8,285.6c0.7,11.6,4.5,40.5,6.8,46c1.6,3.9,1.6,8.4,1.7,12.4
		c0,3.5,0,6.9,1.1,9c1.4,2.8,1.3,7.7,1.2,16.6c-0.2,12.7-0.5,32,3.5,57.9c4,26.2-8.8,35.9-9.4,36.3c-5.1,3.4-7.5,7.2-9.7,10.5
		c-1.6,2.5-3.2,4.9-5.5,6.6c-0.9,0.7-1.1,1.6-0.8,2c0.4,0.6,2.6,1.1,7.2-1.1c3-1.5,5.4-2.9,7.5-4.2c5.9-3.6,10.2-6.1,20.2-4.5
		c3,0.5,4.1-0.4,4.7-1.1c3-3.7,1.2-14.8-1.4-21.5c-1.2-3.2-0.3-8.5,1.1-17.4c2.6-15.5,6.9-41.5,1.6-73.6c-6.4-39-2-53.9,1.9-67.1
		c0.7-2.4,1.4-4.8,2-7.2L47.8,285.6z"/>
</g>
<g>
	<path style="fill:#706A6A;" d="M139.4,275.8c-2.8,18.1-11.5,28.5-1,76.9c10.4,48.4-1.6,83.1,1.5,90.4c3.2,7.3,9,28.5-5.3,26.8
		c-12.4-1.4-14.3,3.4-25.5,9.6s-14-1.8-9.7-5.4c4.5-3.8,5.4-11.2,14.3-17.9c0,0,11.6-9.3,6.6-33.8c-8.6-42.5-5-67.9-8-73.3
		c-3.1-5.4-0.8-14.8-3.9-21.5c-3.1-6.7-9.1-41.7-9.6-49.7L139.4,275.8z"/>
	<path d="M102.5,484.9c-4.2,0.2-6.2-2-6.9-3c-2.1-3-1.3-7.3,1.8-9.9c1.4-1.2,2.5-3.1,3.8-5.3c2.2-3.7,4.8-8.3,10.6-12.6
		c0.7-0.6,9.9-9.1,5.5-30.9c-5.3-26.3-6-45.8-6.5-58.7c-0.2-6.6-0.4-12.3-1.3-13.8c-1.9-3.3-2.1-7.5-2.3-11.6
		c-0.2-3.6-0.4-7.3-1.7-10.1c-3.5-7.4-9.4-43.2-9.8-50.8l-0.2-2.9l47.2-2.5l-0.5,3.6c-0.6,4.1-1.5,7.6-2.4,11.4
		c-3.1,12.7-6.7,27.2,1.3,64.5c7.1,32.8,3.9,59.5,2.1,75.5c-0.8,6.5-1.5,12.7-0.7,14.4c0.1,0.2,8,18.7,1.7,27.2
		c-1.5,2-4.5,4.3-10,3.7c-8-0.9-10.7,0.9-16,4.5c-2.1,1.4-4.5,3-7.7,4.8C107.2,484,104.6,484.7,102.5,484.9z M101.9,280.8
		c1.3,11.6,6.5,40.3,9,45.7c1.8,3.9,2,8.3,2.3,12.3c0.2,3.5,0.4,6.9,1.6,9c1.5,2.7,1.7,7.6,2,16.5c0.4,12.7,1.1,31.9,6.3,57.7
		c5.3,26-7.1,36.3-7.6,36.7c-4.9,3.7-7.2,7.6-9.2,11c-1.5,2.6-2.9,5-5.2,6.9c-0.9,0.7-1,1.7-0.7,2c0.4,0.6,2.7,1,7.2-1.5
		c2.9-1.6,5.2-3.2,7.3-4.5c5.7-3.8,9.9-6.6,20-5.5c3,0.3,4.1-0.6,4.6-1.4c2.8-3.8,0.4-14.9-2.4-21.4c-1.4-3.2-0.7-8.5,0.3-17.4
		c1.8-15.6,4.9-41.7-2-73.6c-8.3-38.6-4.6-53.7-1.3-67.1c0.6-2.5,1.2-4.8,1.7-7.3L101.9,280.8z"/>
</g>
<g>
	<g id="XMLID_1_">
		<g>
			<path style="fill:#706A6A;" d="M112.6,98.1c13.4-1.3,49.7-24.6,49.7-24.6C146.4,52,119.7,34,72.5,68.8
				c13-20.8,30.3-43.4,51.3-48.5c77.6-18.8,67.3,19.1,72.1,104.7s-21.3,72.4-21.3,72.4s4,39.8,0.5,55
				c-3.5,15.2-172.4,90.1-158.3,44.2c19.6-63.9,3.9-81.4,12.1-87.7c2.9-2.3,4.6-5.4,5.6-8.5c0.4,0,14.5-1.1,22.1-3.3
				c24.3-7.4,32.4-16.6,35.7-28.9c3.2-14.1-5.9-26.9-5.9-26.9L112.6,98.1C112.6,98.1,112.6,98.1,112.6,98.1z"/>
			<path style="fill:#393434;" d="M162.3,73.5c0,0-36.3,23.3-49.7,24.6c-0.4-16.5-13.9-21.5-26.1-13.2c0,0-0.4,7.2-19.1,30.4
				c0,0-12.8-16.4-6.9-26.5c3.5-5.9,7.4-12.9,11.9-20C119.7,34,146.4,52,162.3,73.5z"/>
			<path style="fill:#948F8F;" d="M86.5,84.9c12.2-8.3,25.6-3.3,26.1,13.2c0,0,0,0,0,0l-26.2,43.2c0,0,9.1,12.7,5.9,26.9
				c-23.4-22.9-73.6-8.2-73.6-8.2c0.1-6.5,6.1-11.5,19-18.9c26.1-15,29.9-25.7,29.9-25.7C86.2,92.2,86.5,84.9,86.5,84.9z"/>
			<path style="fill:#393434;" d="M92.2,168.2c-3.3,12.3-11.4,21.6-35.7,28.9c-7.5,2.3-21.6,3.3-22.1,3.3c1.8-5.5,1.2-10.9,1.2-10.9
				c-11.1-14.5-17.2-22.9-17-29.7C18.6,159.9,68.9,145.3,92.2,168.2z"/>
		</g>
		<path d="M179.8,19.6c-10.7-8.1-28.2-8.7-56.7-1.8c-23,5.6-41.2,31-52.9,49.7c-4,6.3-7.5,12.5-10.7,17.9l-1.3,2.2
			c-5.7,9.8,3.1,23.7,6.1,28.1c-1.8,3-8.3,11.8-28.1,23.2c-11.9,6.9-18.9,12.1-20.1,19.2l-0.1,0l0,1.9c-0.2,7.7,6.4,16.7,17.1,30.7
			c0.1,1.5,0.1,5.3-1.2,9.1c-1,3.1-2.6,5.5-4.7,7.2c-4.2,3.2-3.8,8-3.3,15.9c0.8,11.8,2.4,33.6-9.7,73.2c-1.8,5.7-1.1,10.3,2,13.4
			c3.3,3.4,9.5,4.9,18.4,4.5c7.9-0.4,18-2.3,30.1-5.7c21.3-6,48.3-16.5,72.4-28.2c14.4-7,38.7-19.8,40.4-27
			c3-12.9,0.8-42.1-0.1-52.3c2.1,0.1,4.8-0.3,7.6-2.1c11.2-7.3,15.7-32.2,13.4-73.8c-0.6-11-1-21.4-1.3-30.6
			C195.8,56.1,194.9,31,179.8,19.6z M62.8,90.1l1.3-2.2c3.1-5.3,6.5-11.2,10.3-17.3c35.2-25.7,62.7-25,84.1,2.2
			C148,79.4,126,92.3,115,95.1c-0.9-6.9-4.2-12.3-9.4-14.9c-6-3-13.7-2.1-20.6,2.7l-1.2,0.6l0,1.4c-0.1,0.7-1.7,7.7-16.3,26.3
			C64.1,105.6,59.4,96,62.8,90.1z M38.9,143.2c20.6-11.8,29-22,30.9-26.6C84.4,98.4,88,89.7,88.8,86.5c5.1-3.2,10.4-3.8,14.4-1.8
			c4,2,6.4,6.5,6.7,12.7l-26.7,44l1,1.4c0.1,0.1,6.5,9.3,6,20.3c-21-15.9-55.9-9.6-68.1-6.8C24.2,152.7,29.2,148.8,38.9,143.2z
			 M21.4,161.9c9.3-2.3,48.1-10.6,67.9,7.1c-3.2,10.3-10.5,18.7-33.5,25.7c-5,1.5-13.2,2.5-17.9,2.9c0.8-4.4,0.4-8.1,0.4-8.2
			l-0.1-0.7l-0.4-0.6C28.4,175.9,22.4,167.7,21.4,161.9z M191.9,94.4c0.3,9.2,0.7,19.7,1.3,30.7c2.9,51.7-5.6,65.5-11,69.1
			c-3.4,2.3-6.5,0.9-6.6,0.9l-4.2-2.1l0.5,4.7c0,0.4,3.9,39.5,0.5,54.2c-0.6,2.4-11.8,11.1-39.3,24.3C108.5,288,81.2,298.4,60.2,304
			c-21.2,5.6-35.9,6.2-40.3,1.7c-0.6-0.6-2.5-2.6-0.8-8.3c12.4-40.4,10.8-62.9,9.9-75c-0.5-7-0.6-9.9,1.3-11.4
			c2.6-2,4.6-4.7,5.9-8.1c4.4-0.4,14.7-1.4,21-3.3c22.6-6.9,33.5-15.8,37.5-30.8l0.4-1.5l-0.1-0.1c2.1-11.8-3.3-22.3-5.6-26
			l24.7-40.7c14.6-2.5,48.1-23.9,49.5-24.9l2.3-1.5l-1.6-2.2c-21.3-28.8-49-33-82.7-12.5c10.9-15.7,25.5-32.5,42.7-36.7
			c26.8-6.5,42.9-6.2,52.3,0.9C189.8,33.7,190.6,57.8,191.9,94.4z"/>
	</g>
	<g>
		<path style="fill:none;stroke:#000000;stroke-width:6;stroke-miterlimit:10;" d="M158.6,266.4"/>
	</g>
</g>
</svg>
