<?xml version="1.0" encoding="UTF-8"?>
<svg width="260px" height="100px" viewBox="0 0 260 100" version="1.1" xmlns="http://www.w3.org/2000/svg" xmlns:xlink="http://www.w3.org/1999/xlink">
    <!-- Generator: Sketch 49 (51002) - http://www.bohemiancoding.com/sketch -->
    <title>Button</title>
    <desc>Created with Sketch.</desc>
    <defs>
        <path d="M14.3455734,3.9178929 C22.5294348,-2.25837387 26.6587851,0.715900928 47.0190759,0.715900928 L91.4041232,3.1188481 L134.315564,1.86355551 L198.387001,1.86355551 C215.212699,2.23543103 215.729957,5.51769132 224.642652,17.6365519 C233.555347,29.7554124 230.314961,39.9493904 231.047139,53.217357 C231.779317,66.4853235 234.191431,70.8180356 232.996422,78.9682963 C231.801413,87.1185571 229.730018,85.7698338 218.66949,87.1185571 C207.608962,88.4672804 210.317602,85.5562356 195.817535,85.5562356 C181.317468,85.5562356 168.683586,86.6896514 146.836478,87.0856879 C124.98937,87.4817245 121.165226,89.1400253 109.633045,87.1185571 C101.944924,85.7709116 88.5421985,85.7709116 69.4248673,87.1185571 L51.0218431,87.1185571 C31.0669141,88.3494109 18.0921796,88.3494109 12.0976396,87.1185571 C3.1058295,85.2722764 -0.944893142,84.8728739 0.185189954,76.6803103 C1.31527305,68.4877467 3.34541948,56.3419449 1.15976246,35.3254014 C-1.02589456,14.3088579 6.16171202,10.0941597 14.3455734,3.9178929 Z" id="path-1"></path>
        <filter x="-3.0%" y="-5.7%" width="106.0%" height="115.9%" filterUnits="objectBoundingBox" id="filter-2">
            <feOffset dx="0" dy="2" in="SourceAlpha" result="shadowOffsetOuter1"></feOffset>
            <feGaussianBlur stdDeviation="2" in="shadowOffsetOuter1" result="shadowBlurOuter1"></feGaussianBlur>
            <feComposite in="shadowBlurOuter1" in2="SourceAlpha" operator="out" result="shadowBlurOuter1"></feComposite>
            <feColorMatrix values="0 0 0 0 0   0 0 0 0 0   0 0 0 0 0  0 0 0 0.5 0" type="matrix" in="shadowBlurOuter1"></feColorMatrix>
        </filter>
    </defs>
    <g id="Button" stroke="none" stroke-width="1" fill="none" fill-rule="evenodd">
        <g transform="translate(12.000000, 5.000000)">
            <g id="Rectangle-3">
                <use fill="black" fill-opacity="1" filter="url(#filter-2)" xlink:href="#path-1"></use>
                <use fill="#706A6A" fill-rule="evenodd" xlink:href="#path-1"></use>
                <path stroke="#393434" stroke-width="4" d="M69.3545213,85.1185571 C88.5874197,83.7650825 102.095222,83.7667633 109.978359,85.148593 C113.232766,85.7190559 115.908746,86.0003007 118.669888,86.0782313 C120.50382,86.1299922 122.402771,86.0965794 124.963546,85.9810084 C126.342657,85.9187673 131.982903,85.6121291 133.094606,85.5563512 C137.641635,85.3282113 141.877387,85.175256 146.800229,85.0860165 C154.237095,84.9512036 160.694372,84.7385642 168.970064,84.3900489 C169.702368,84.3592093 177.044751,84.0420321 179.091905,83.9589544 C182.76031,83.8100828 185.708308,83.7101558 188.550038,83.6443011 C191.066281,83.5859893 193.455471,83.5562356 195.817535,83.5562356 C200.98622,83.5562356 204.237827,83.8840906 207.451826,84.5583318 C207.875135,84.6471346 209.40379,84.9884232 209.766363,85.0633812 C212.241559,85.5751014 214.305643,85.635871 218.427403,85.1332627 C219.532512,84.9985055 220.594771,84.8840069 221.824423,84.7631707 C222.235688,84.7227563 224.110739,84.544452 224.576753,84.4976002 C229.972888,83.9550863 230.281778,83.6965038 231.01758,78.6781542 C231.332917,76.5274728 231.394958,74.5910181 231.246605,72.4728798 C231.165529,71.3153014 231.02519,70.1106052 230.794574,68.5028154 C230.709633,67.9106256 230.241602,64.8125546 230.104327,63.8499546 C229.592684,60.2621985 229.257024,57.0758693 229.050177,53.3275571 C228.896242,50.5380554 228.896554,48.3593462 228.988618,43.8556945 C229.120841,37.3875216 229.051701,34.7370116 228.481828,31.4022132 C227.715581,26.918272 226.044564,22.9184903 223.031462,18.8214854 C222.069454,17.5134136 219.34664,13.7263853 219.089367,13.3736128 C217.796045,11.6002119 216.880735,10.4264475 216.00224,9.44101439 C212.325742,5.31698175 208.676476,4.09145819 198.387001,3.86355551 L134.374045,3.86270032 L91.4626044,5.11799291 L91.2960042,5.11592354 L46.9648608,2.71589465 C42.6732134,2.71489949 39.0494648,2.59565612 34.5592758,2.35508616 C24.1177019,1.79566003 22.7263085,1.82734909 19.6831433,3.0666392 C18.3803824,3.59717192 17.0541875,4.3793703 15.5503583,5.514293 C15.1864841,5.78890473 13.4848877,7.0608463 13.0286508,7.40639167 C8.65666415,10.7176529 6.50223419,12.9649101 4.92241024,16.3602722 C2.91302571,20.678847 2.26175099,26.5867075 3.14903403,35.1185231 C4.67968271,49.8367265 4.37176217,60.4998252 2.82008849,72.2247329 C2.71951452,72.9846997 2.61711209,73.731286 2.48154347,74.7002617 C2.443735,74.9704975 2.39941938,75.2861099 2.31970234,75.853763 C2.25644805,76.3046807 2.21032157,76.6354082 2.16642978,76.9536028 C1.46520136,82.0371745 2.41596916,83.0075974 8.66352155,84.3679877 C9.17392501,84.4791269 9.72246756,84.5936209 10.476412,84.7474408 C10.5436086,84.7611503 12.0378107,85.0645477 12.4999056,85.1594292 C18.2591335,86.3419666 31.1259803,86.3419666 50.8987137,85.1223509 L51.0218431,85.1185571 L69.3545213,85.1185571 Z"></path>
            </g>
            <g id="Group" transform="translate(189.000000, 35.000000)"></g>
        </g>
    </g>
</svg>