<?xml version="1.0" encoding="UTF-8"?>
<svg width="20px" height="21px" viewBox="0 0 20 21" version="1.1" xmlns="http://www.w3.org/2000/svg" xmlns:xlink="http://www.w3.org/1999/xlink">
    <!-- Generator: Sketch 49 (51002) - http://www.bohemiancoding.com/sketch -->
    <title>Group</title>
    <desc>Created with Sketch.</desc>
    <defs></defs>
    <g id="Page-2" stroke="none" stroke-width="1" fill="none" fill-rule="evenodd">
        <g id="header" transform="translate(-217.000000, -238.000000)" fill="#FFFFFF" fill-rule="nonzero">
            <g id="Navigation" transform="translate(133.000000, 76.000000)">
                <g id="Group-2" transform="translate(0.000000, 162.000000)">
                    <g id="Group" transform="translate(84.000000, 0.000000)">
                        <g id="Shape">
                            <path d="M20,2.67391304 L20,18.4565217 C20,19.6447011 19.0401786,20.6086957 17.8571429,20.6086957 L14.0491071,20.6086957 L14.0491071,12.663587 L16.7544643,12.663587 L17.1428571,9.6326087 L14.0491071,9.6326087 L14.0491071,7.69565217 C14.0491071,6.81684783 14.2901786,6.2205163 15.5446429,6.2205163 L17.1428571,6.2205163 L17.1428571,3.51236413 C16.8660714,3.47649457 15.9196429,3.39130435 14.8125,3.39130435 C12.5089286,3.39130435 10.9285714,4.80366848 10.9285714,7.39972826 L10.9285714,9.63709239 L8.21428571,9.63709239 L8.21428571,12.6680707 L10.9330357,12.6680707 L10.9330357,20.6086957 L2.14285714,20.6086957 C0.959821429,20.6086957 0,19.6447011 0,18.4565217 L0,2.67391304 C0,1.4857337 0.959821429,0.52173913 2.14285714,0.52173913 L17.8571429,0.52173913 C19.0401786,0.52173913 20,1.4857337 20,2.67391304 Z"></path>
                        </g>
                    </g>
                </g>
            </g>
        </g>
    </g>
</svg>