<?xml version="1.0" encoding="UTF-8"?>
<svg width="24px" height="20px" viewBox="0 0 24 20" version="1.1" xmlns="http://www.w3.org/2000/svg" xmlns:xlink="http://www.w3.org/1999/xlink">
    <!-- Generator: Sketch 49 (51002) - http://www.bohemiancoding.com/sketch -->
    <title>Group</title>
    <desc>Created with Sketch.</desc>
    <defs></defs>
    <g id="Page-2" stroke="none" stroke-width="1" fill="none" fill-rule="evenodd">
        <g id="header" transform="translate(-175.000000, -239.000000)" fill="#FFFFFF" fill-rule="nonzero">
            <g id="Navigation" transform="translate(133.000000, 76.000000)">
                <g id="Group-2" transform="translate(0.000000, 162.000000)">
                    <g id="Group" transform="translate(42.000000, 1.000000)">
                        <path d="M9.305,13.235 C9.305,14.28 8.76,15.99 7.47,15.99 C6.18,15.99 5.635,14.28 5.635,13.235 C5.635,12.19 6.18,10.48 7.47,10.48 C8.76,10.48 9.305,12.19 9.305,13.235 Z M24,10.71 C24,12.305 23.84,13.995 23.125,15.46 C21.23,19.29 16.02,19.2 12.29,19.2 C8.5,19.2 2.98,19.335 1.01,15.46 C0.28,14.01 0,12.305 0,10.71 C0,8.615 0.695,6.635 2.075,5.03 C1.815,4.24 1.69,3.41 1.69,2.59 C1.69,1.515 1.935,0.975 2.42,0 C4.685,0 6.135,0.45 7.86,1.8 C9.31,1.455 10.8,1.3 12.295,1.3 C13.645,1.3 15.005,1.445 16.315,1.76 C18.015,0.425 19.465,0 21.705,0 C22.195,0.975 22.435,1.515 22.435,2.59 C22.435,3.41 22.305,4.225 22.05,5 C23.425,6.62 24,8.615 24,10.71 Z M20.785,13.235 C20.785,11.04 19.45,9.105 17.11,9.105 C16.165,9.105 15.26,9.275 14.31,9.405 C13.565,9.52 12.82,9.565 12.055,9.565 C11.295,9.565 10.55,9.52 9.8,9.405 C8.865,9.275 7.95,9.105 7,9.105 C4.66,9.105 3.325,11.04 3.325,13.235 C3.325,17.625 7.345,18.3 10.845,18.3 L13.255,18.3 C16.77,18.3 20.785,17.63 20.785,13.235 Z M16.655,10.48 C15.365,10.48 14.82,12.19 14.82,13.235 C14.82,14.28 15.365,15.99 16.655,15.99 C17.945,15.99 18.49,14.28 18.49,13.235 C18.49,12.19 17.945,10.48 16.655,10.48 Z" id="Shape"></path>
                    </g>
                </g>
            </g>
        </g>
    </g>
</svg>